<mxfile host="Electron" agent="Mozilla/5.0 (X11; Linux x86_64) AppleWebKit/537.36 (KHTML, like Gecko) draw.io/24.7.17 Chrome/128.0.6613.186 Electron/32.2.3 Safari/537.36" version="24.7.17">
  <diagram name="page 1" id="qVR1apmD6zJQwRJWvuhT">
    <mxGraphModel dx="928" dy="998" grid="1" gridSize="10" guides="0" tooltips="1" connect="0" arrows="0" fold="1" page="0" pageScale="1" pageWidth="1" pageHeight="1" math="0" shadow="0">
      <root>
        <mxCell id="0" />
        <mxCell id="1" parent="0" />
        <mxCell id="bWEumTjsvRZVFGGNAj3E-31" value="" style="endArrow=ERzeroToMany;html=1;rounded=0;endSize=10;startArrow=ERone;startFill=0;endFill=0;startSize=10;jumpSize=5;fontFamily=Source Code Pro;fontSize=50;edgeStyle=orthogonalEdgeStyle;" parent="1" source="L7v4DbWmXzUbWN3TQE_9-1" target="wR0pdppz9Ygxzf8U3rlt-65" edge="1">
          <mxGeometry width="50" height="50" relative="1" as="geometry">
            <mxPoint x="1000" y="480" as="sourcePoint" />
            <mxPoint x="1320" y="480" as="targetPoint" />
            <Array as="points" />
          </mxGeometry>
        </mxCell>
        <mxCell id="L7v4DbWmXzUbWN3TQE_9-1" value="patient" style="shape=table;startSize=30;container=1;collapsible=1;childLayout=tableLayout;fixedRows=1;rowLines=0;fontStyle=1;align=center;resizeLast=1;html=1;whiteSpace=wrap;fontFamily=Source Sans Pro;verticalAlign=middle;fillStyle=solid;fillColor=#BEBEBE;swimlaneFillColor=#E6E6E6;" parent="1" vertex="1">
          <mxGeometry x="1320" y="720" width="160" height="120" as="geometry">
            <mxRectangle x="1240" y="320" width="160" height="30" as="alternateBounds" />
          </mxGeometry>
        </mxCell>
        <mxCell id="L7v4DbWmXzUbWN3TQE_9-5" value="" style="shape=tableRow;horizontal=0;startSize=0;swimlaneHead=0;swimlaneBody=0;fillColor=none;collapsible=0;dropTarget=0;points=[[0,0.5],[1,0.5]];portConstraint=eastwest;top=0;left=0;right=0;bottom=1;html=1;fontFamily=Source Sans Pro;fontSize=50;" parent="L7v4DbWmXzUbWN3TQE_9-1" vertex="1">
          <mxGeometry y="30" width="160" height="30" as="geometry" />
        </mxCell>
        <mxCell id="L7v4DbWmXzUbWN3TQE_9-6" value="PK" style="shape=partialRectangle;connectable=0;fillColor=none;top=0;left=0;bottom=0;right=0;fontStyle=1;overflow=hidden;html=1;whiteSpace=wrap;fontFamily=Source Code Pro;fontSize=6;strokeColor=inherit;" parent="L7v4DbWmXzUbWN3TQE_9-5" vertex="1">
          <mxGeometry width="40" height="30" as="geometry">
            <mxRectangle width="40" height="30" as="alternateBounds" />
          </mxGeometry>
        </mxCell>
        <mxCell id="L7v4DbWmXzUbWN3TQE_9-7" value="rut" style="shape=partialRectangle;connectable=0;fillColor=none;top=0;left=0;bottom=0;right=0;align=left;spacingLeft=2;fontStyle=5;overflow=hidden;html=1;whiteSpace=wrap;fontFamily=Source Code Pro;fontSize=6;strokeColor=inherit;spacingRight=2;" parent="L7v4DbWmXzUbWN3TQE_9-5" vertex="1">
          <mxGeometry x="40" width="120" height="30" as="geometry">
            <mxRectangle width="120" height="30" as="alternateBounds" />
          </mxGeometry>
        </mxCell>
        <mxCell id="L7v4DbWmXzUbWN3TQE_9-8" value="" style="shape=tableRow;horizontal=0;startSize=0;swimlaneHead=0;swimlaneBody=0;fillColor=none;collapsible=0;dropTarget=0;points=[[0,0.5],[1,0.5]];portConstraint=eastwest;top=0;left=0;right=0;bottom=0;html=1;fontFamily=Source Sans Pro;fontSize=50;" parent="L7v4DbWmXzUbWN3TQE_9-1" vertex="1">
          <mxGeometry y="60" width="160" height="20" as="geometry" />
        </mxCell>
        <mxCell id="L7v4DbWmXzUbWN3TQE_9-9" value="" style="shape=partialRectangle;connectable=0;fillColor=none;top=0;left=0;bottom=0;right=0;editable=1;overflow=hidden;html=1;whiteSpace=wrap;fontFamily=Source Code Pro;fontSize=6;strokeColor=inherit;" parent="L7v4DbWmXzUbWN3TQE_9-8" vertex="1">
          <mxGeometry width="40" height="20" as="geometry">
            <mxRectangle width="40" height="20" as="alternateBounds" />
          </mxGeometry>
        </mxCell>
        <mxCell id="L7v4DbWmXzUbWN3TQE_9-10" value="name" style="shape=partialRectangle;connectable=0;fillColor=none;top=0;left=0;bottom=0;right=0;align=left;spacingLeft=2;overflow=hidden;html=1;whiteSpace=wrap;fontFamily=Source Code Pro;fontSize=6;strokeColor=inherit;spacingRight=2;" parent="L7v4DbWmXzUbWN3TQE_9-8" vertex="1">
          <mxGeometry x="40" width="120" height="20" as="geometry">
            <mxRectangle width="120" height="20" as="alternateBounds" />
          </mxGeometry>
        </mxCell>
        <mxCell id="eeZUi_6JxWHf7fmhZz_U-38" style="shape=tableRow;horizontal=0;startSize=0;swimlaneHead=0;swimlaneBody=0;fillColor=none;collapsible=0;dropTarget=0;points=[[0,0.5],[1,0.5]];portConstraint=eastwest;top=0;left=0;right=0;bottom=0;html=1;fontFamily=Source Sans Pro;fontSize=50;" parent="L7v4DbWmXzUbWN3TQE_9-1" vertex="1">
          <mxGeometry y="80" width="160" height="20" as="geometry" />
        </mxCell>
        <mxCell id="eeZUi_6JxWHf7fmhZz_U-39" style="shape=partialRectangle;connectable=0;fillColor=none;top=0;left=0;bottom=0;right=0;editable=1;overflow=hidden;html=1;whiteSpace=wrap;fontFamily=Source Code Pro;fontSize=6;strokeColor=inherit;" parent="eeZUi_6JxWHf7fmhZz_U-38" vertex="1">
          <mxGeometry width="40" height="20" as="geometry">
            <mxRectangle width="40" height="20" as="alternateBounds" />
          </mxGeometry>
        </mxCell>
        <mxCell id="eeZUi_6JxWHf7fmhZz_U-40" style="shape=partialRectangle;connectable=0;fillColor=none;top=0;left=0;bottom=0;right=0;align=left;spacingLeft=2;overflow=hidden;html=1;whiteSpace=wrap;fontFamily=Source Code Pro;fontSize=6;strokeColor=inherit;spacingRight=2;" parent="eeZUi_6JxWHf7fmhZz_U-38" vertex="1">
          <mxGeometry x="40" width="120" height="20" as="geometry">
            <mxRectangle width="120" height="20" as="alternateBounds" />
          </mxGeometry>
        </mxCell>
        <mxCell id="eeZUi_6JxWHf7fmhZz_U-35" style="shape=tableRow;horizontal=0;startSize=0;swimlaneHead=0;swimlaneBody=0;fillColor=none;collapsible=0;dropTarget=0;points=[[0,0.5],[1,0.5]];portConstraint=eastwest;top=0;left=0;right=0;bottom=0;html=1;fontFamily=Source Sans Pro;fontSize=50;" parent="L7v4DbWmXzUbWN3TQE_9-1" vertex="1">
          <mxGeometry y="100" width="160" height="20" as="geometry" />
        </mxCell>
        <mxCell id="eeZUi_6JxWHf7fmhZz_U-36" style="shape=partialRectangle;connectable=0;fillColor=none;top=0;left=0;bottom=0;right=0;editable=1;overflow=hidden;html=1;whiteSpace=wrap;fontFamily=Source Code Pro;fontSize=6;strokeColor=inherit;" parent="eeZUi_6JxWHf7fmhZz_U-35" vertex="1">
          <mxGeometry width="40" height="20" as="geometry">
            <mxRectangle width="40" height="20" as="alternateBounds" />
          </mxGeometry>
        </mxCell>
        <mxCell id="eeZUi_6JxWHf7fmhZz_U-37" style="shape=partialRectangle;connectable=0;fillColor=none;top=0;left=0;bottom=0;right=0;align=left;spacingLeft=2;overflow=hidden;html=1;whiteSpace=wrap;fontFamily=Source Code Pro;fontSize=6;strokeColor=inherit;spacingRight=2;" parent="eeZUi_6JxWHf7fmhZz_U-35" vertex="1">
          <mxGeometry x="40" width="120" height="20" as="geometry">
            <mxRectangle width="120" height="20" as="alternateBounds" />
          </mxGeometry>
        </mxCell>
        <mxCell id="eeZUi_6JxWHf7fmhZz_U-1" value="medic" style="shape=table;startSize=30;container=1;collapsible=1;childLayout=tableLayout;fixedRows=1;rowLines=0;fontStyle=1;align=center;resizeLast=1;html=1;whiteSpace=wrap;fontFamily=Source Sans Pro;verticalAlign=middle;fillStyle=solid;fillColor=#BEBEBE;swimlaneFillColor=#E6E6E6;" parent="1" vertex="1">
          <mxGeometry x="1040" y="320" width="160" height="120" as="geometry">
            <mxRectangle x="1240" y="320" width="160" height="30" as="alternateBounds" />
          </mxGeometry>
        </mxCell>
        <mxCell id="eeZUi_6JxWHf7fmhZz_U-2" value="" style="shape=tableRow;horizontal=0;startSize=0;swimlaneHead=0;swimlaneBody=0;fillColor=none;collapsible=0;dropTarget=0;points=[[0,0.5],[1,0.5]];portConstraint=eastwest;top=0;left=0;right=0;bottom=1;html=1;fontFamily=Source Sans Pro;fontSize=50;" parent="eeZUi_6JxWHf7fmhZz_U-1" vertex="1">
          <mxGeometry y="30" width="160" height="30" as="geometry" />
        </mxCell>
        <mxCell id="eeZUi_6JxWHf7fmhZz_U-3" value="PK" style="shape=partialRectangle;connectable=0;fillColor=none;top=0;left=0;bottom=0;right=0;fontStyle=1;overflow=hidden;html=1;whiteSpace=wrap;fontFamily=Source Code Pro;fontSize=6;strokeColor=inherit;" parent="eeZUi_6JxWHf7fmhZz_U-2" vertex="1">
          <mxGeometry width="40" height="30" as="geometry">
            <mxRectangle width="40" height="30" as="alternateBounds" />
          </mxGeometry>
        </mxCell>
        <mxCell id="eeZUi_6JxWHf7fmhZz_U-4" value="rut" style="shape=partialRectangle;connectable=0;fillColor=none;top=0;left=0;bottom=0;right=0;align=left;spacingLeft=2;fontStyle=5;overflow=hidden;html=1;whiteSpace=wrap;fontFamily=Source Code Pro;fontSize=6;strokeColor=inherit;spacingRight=2;" parent="eeZUi_6JxWHf7fmhZz_U-2" vertex="1">
          <mxGeometry x="40" width="120" height="30" as="geometry">
            <mxRectangle width="120" height="30" as="alternateBounds" />
          </mxGeometry>
        </mxCell>
        <mxCell id="eeZUi_6JxWHf7fmhZz_U-5" value="" style="shape=tableRow;horizontal=0;startSize=0;swimlaneHead=0;swimlaneBody=0;fillColor=none;collapsible=0;dropTarget=0;points=[[0,0.5],[1,0.5]];portConstraint=eastwest;top=0;left=0;right=0;bottom=0;html=1;fontFamily=Source Sans Pro;fontSize=50;" parent="eeZUi_6JxWHf7fmhZz_U-1" vertex="1">
          <mxGeometry y="60" width="160" height="20" as="geometry" />
        </mxCell>
        <mxCell id="eeZUi_6JxWHf7fmhZz_U-6" value="" style="shape=partialRectangle;connectable=0;fillColor=none;top=0;left=0;bottom=0;right=0;editable=1;overflow=hidden;html=1;whiteSpace=wrap;fontFamily=Source Code Pro;fontSize=6;strokeColor=inherit;" parent="eeZUi_6JxWHf7fmhZz_U-5" vertex="1">
          <mxGeometry width="40" height="20" as="geometry">
            <mxRectangle width="40" height="20" as="alternateBounds" />
          </mxGeometry>
        </mxCell>
        <mxCell id="eeZUi_6JxWHf7fmhZz_U-7" value="name" style="shape=partialRectangle;connectable=0;fillColor=none;top=0;left=0;bottom=0;right=0;align=left;spacingLeft=2;overflow=hidden;html=1;whiteSpace=wrap;fontFamily=Source Code Pro;fontSize=6;strokeColor=inherit;spacingRight=2;" parent="eeZUi_6JxWHf7fmhZz_U-5" vertex="1">
          <mxGeometry x="40" width="120" height="20" as="geometry">
            <mxRectangle width="120" height="20" as="alternateBounds" />
          </mxGeometry>
        </mxCell>
        <mxCell id="eeZUi_6JxWHf7fmhZz_U-11" style="shape=tableRow;horizontal=0;startSize=0;swimlaneHead=0;swimlaneBody=0;fillColor=none;collapsible=0;dropTarget=0;points=[[0,0.5],[1,0.5]];portConstraint=eastwest;top=0;left=0;right=0;bottom=0;html=1;fontFamily=Source Sans Pro;fontSize=50;" parent="eeZUi_6JxWHf7fmhZz_U-1" vertex="1">
          <mxGeometry y="80" width="160" height="20" as="geometry" />
        </mxCell>
        <mxCell id="eeZUi_6JxWHf7fmhZz_U-12" style="shape=partialRectangle;connectable=0;fillColor=none;top=0;left=0;bottom=0;right=0;editable=1;overflow=hidden;html=1;whiteSpace=wrap;fontFamily=Source Code Pro;fontSize=6;strokeColor=inherit;" parent="eeZUi_6JxWHf7fmhZz_U-11" vertex="1">
          <mxGeometry width="40" height="20" as="geometry">
            <mxRectangle width="40" height="20" as="alternateBounds" />
          </mxGeometry>
        </mxCell>
        <mxCell id="eeZUi_6JxWHf7fmhZz_U-13" value="area" style="shape=partialRectangle;connectable=0;fillColor=none;top=0;left=0;bottom=0;right=0;align=left;spacingLeft=2;overflow=hidden;html=1;whiteSpace=wrap;fontFamily=Source Code Pro;fontSize=6;strokeColor=inherit;spacingRight=2;" parent="eeZUi_6JxWHf7fmhZz_U-11" vertex="1">
          <mxGeometry x="40" width="120" height="20" as="geometry">
            <mxRectangle width="120" height="20" as="alternateBounds" />
          </mxGeometry>
        </mxCell>
        <mxCell id="eeZUi_6JxWHf7fmhZz_U-41" style="shape=tableRow;horizontal=0;startSize=0;swimlaneHead=0;swimlaneBody=0;fillColor=none;collapsible=0;dropTarget=0;points=[[0,0.5],[1,0.5]];portConstraint=eastwest;top=0;left=0;right=0;bottom=0;html=1;fontFamily=Source Sans Pro;fontSize=50;" parent="eeZUi_6JxWHf7fmhZz_U-1" vertex="1">
          <mxGeometry y="100" width="160" height="20" as="geometry" />
        </mxCell>
        <mxCell id="eeZUi_6JxWHf7fmhZz_U-42" style="shape=partialRectangle;connectable=0;fillColor=none;top=0;left=0;bottom=0;right=0;editable=1;overflow=hidden;html=1;whiteSpace=wrap;fontFamily=Source Code Pro;fontSize=6;strokeColor=inherit;" parent="eeZUi_6JxWHf7fmhZz_U-41" vertex="1">
          <mxGeometry width="40" height="20" as="geometry">
            <mxRectangle width="40" height="20" as="alternateBounds" />
          </mxGeometry>
        </mxCell>
        <mxCell id="eeZUi_6JxWHf7fmhZz_U-43" style="shape=partialRectangle;connectable=0;fillColor=none;top=0;left=0;bottom=0;right=0;align=left;spacingLeft=2;overflow=hidden;html=1;whiteSpace=wrap;fontFamily=Source Code Pro;fontSize=6;strokeColor=inherit;spacingRight=2;" parent="eeZUi_6JxWHf7fmhZz_U-41" vertex="1">
          <mxGeometry x="40" width="120" height="20" as="geometry">
            <mxRectangle width="120" height="20" as="alternateBounds" />
          </mxGeometry>
        </mxCell>
        <mxCell id="eeZUi_6JxWHf7fmhZz_U-14" value="agenda" style="shape=table;startSize=30;container=1;collapsible=1;childLayout=tableLayout;fixedRows=1;rowLines=0;fontStyle=1;align=center;resizeLast=1;html=1;whiteSpace=wrap;fontFamily=Source Sans Pro;verticalAlign=middle;fillStyle=solid;fillColor=#BEBEBE;swimlaneFillColor=#E6E6E6;" parent="1" vertex="1">
          <mxGeometry x="1320" y="320" width="160" height="120" as="geometry">
            <mxRectangle x="1240" y="480" width="160" height="30" as="alternateBounds" />
          </mxGeometry>
        </mxCell>
        <mxCell id="eeZUi_6JxWHf7fmhZz_U-15" value="" style="shape=tableRow;horizontal=0;startSize=0;swimlaneHead=0;swimlaneBody=0;fillColor=none;collapsible=0;dropTarget=0;points=[[0,0.5],[1,0.5]];portConstraint=eastwest;top=0;left=0;right=0;bottom=1;html=1;fontFamily=Source Sans Pro;fontSize=50;" parent="eeZUi_6JxWHf7fmhZz_U-14" vertex="1">
          <mxGeometry y="30" width="160" height="30" as="geometry" />
        </mxCell>
        <mxCell id="eeZUi_6JxWHf7fmhZz_U-16" value="PK" style="shape=partialRectangle;connectable=0;fillColor=none;top=0;left=0;bottom=0;right=0;fontStyle=1;overflow=hidden;html=1;whiteSpace=wrap;fontFamily=Source Code Pro;fontSize=6;strokeColor=inherit;" parent="eeZUi_6JxWHf7fmhZz_U-15" vertex="1">
          <mxGeometry width="40" height="30" as="geometry">
            <mxRectangle width="40" height="30" as="alternateBounds" />
          </mxGeometry>
        </mxCell>
        <mxCell id="eeZUi_6JxWHf7fmhZz_U-17" value="ID" style="shape=partialRectangle;connectable=0;fillColor=none;top=0;left=0;bottom=0;right=0;align=left;spacingLeft=2;fontStyle=5;overflow=hidden;html=1;whiteSpace=wrap;fontFamily=Source Code Pro;fontSize=6;strokeColor=inherit;spacingRight=2;" parent="eeZUi_6JxWHf7fmhZz_U-15" vertex="1">
          <mxGeometry x="40" width="120" height="30" as="geometry">
            <mxRectangle width="120" height="30" as="alternateBounds" />
          </mxGeometry>
        </mxCell>
        <mxCell id="eeZUi_6JxWHf7fmhZz_U-18" value="" style="shape=tableRow;horizontal=0;startSize=0;swimlaneHead=0;swimlaneBody=0;fillColor=none;collapsible=0;dropTarget=0;points=[[0,0.5],[1,0.5]];portConstraint=eastwest;top=0;left=0;right=0;bottom=0;html=1;fontFamily=Source Sans Pro;fontSize=50;" parent="eeZUi_6JxWHf7fmhZz_U-14" vertex="1">
          <mxGeometry y="60" width="160" height="20" as="geometry" />
        </mxCell>
        <mxCell id="eeZUi_6JxWHf7fmhZz_U-19" value="&lt;b&gt;FK&lt;/b&gt;" style="shape=partialRectangle;connectable=0;fillColor=none;top=0;left=0;bottom=0;right=0;editable=1;overflow=hidden;html=1;whiteSpace=wrap;fontFamily=Source Code Pro;fontSize=6;strokeColor=inherit;" parent="eeZUi_6JxWHf7fmhZz_U-18" vertex="1">
          <mxGeometry width="40" height="20" as="geometry">
            <mxRectangle width="40" height="20" as="alternateBounds" />
          </mxGeometry>
        </mxCell>
        <mxCell id="eeZUi_6JxWHf7fmhZz_U-20" value="rutM" style="shape=partialRectangle;connectable=0;fillColor=none;top=0;left=0;bottom=0;right=0;align=left;spacingLeft=2;overflow=hidden;html=1;whiteSpace=wrap;fontFamily=Source Code Pro;fontSize=6;strokeColor=inherit;spacingRight=2;" parent="eeZUi_6JxWHf7fmhZz_U-18" vertex="1">
          <mxGeometry x="40" width="120" height="20" as="geometry">
            <mxRectangle width="120" height="20" as="alternateBounds" />
          </mxGeometry>
        </mxCell>
        <mxCell id="eeZUi_6JxWHf7fmhZz_U-21" style="shape=tableRow;horizontal=0;startSize=0;swimlaneHead=0;swimlaneBody=0;fillColor=none;collapsible=0;dropTarget=0;points=[[0,0.5],[1,0.5]];portConstraint=eastwest;top=0;left=0;right=0;bottom=0;html=1;fontFamily=Source Sans Pro;fontSize=50;" parent="eeZUi_6JxWHf7fmhZz_U-14" vertex="1">
          <mxGeometry y="80" width="160" height="20" as="geometry" />
        </mxCell>
        <mxCell id="eeZUi_6JxWHf7fmhZz_U-22" value="&lt;b&gt;FK&lt;/b&gt;" style="shape=partialRectangle;connectable=0;fillColor=none;top=0;left=0;bottom=0;right=0;editable=1;overflow=hidden;html=1;whiteSpace=wrap;fontFamily=Source Code Pro;fontSize=6;strokeColor=inherit;" parent="eeZUi_6JxWHf7fmhZz_U-21" vertex="1">
          <mxGeometry width="40" height="20" as="geometry">
            <mxRectangle width="40" height="20" as="alternateBounds" />
          </mxGeometry>
        </mxCell>
        <mxCell id="eeZUi_6JxWHf7fmhZz_U-23" value="start" style="shape=partialRectangle;connectable=0;fillColor=none;top=0;left=0;bottom=0;right=0;align=left;spacingLeft=2;overflow=hidden;html=1;whiteSpace=wrap;fontFamily=Source Code Pro;fontSize=6;strokeColor=inherit;spacingRight=2;" parent="eeZUi_6JxWHf7fmhZz_U-21" vertex="1">
          <mxGeometry x="40" width="120" height="20" as="geometry">
            <mxRectangle width="120" height="20" as="alternateBounds" />
          </mxGeometry>
        </mxCell>
        <mxCell id="eeZUi_6JxWHf7fmhZz_U-24" style="shape=tableRow;horizontal=0;startSize=0;swimlaneHead=0;swimlaneBody=0;fillColor=none;collapsible=0;dropTarget=0;points=[[0,0.5],[1,0.5]];portConstraint=eastwest;top=0;left=0;right=0;bottom=0;html=1;fontFamily=Source Sans Pro;fontSize=50;" parent="eeZUi_6JxWHf7fmhZz_U-14" vertex="1">
          <mxGeometry y="100" width="160" height="20" as="geometry" />
        </mxCell>
        <mxCell id="eeZUi_6JxWHf7fmhZz_U-25" style="shape=partialRectangle;connectable=0;fillColor=none;top=0;left=0;bottom=0;right=0;editable=1;overflow=hidden;html=1;whiteSpace=wrap;fontFamily=Source Code Pro;fontSize=6;strokeColor=inherit;" parent="eeZUi_6JxWHf7fmhZz_U-24" vertex="1">
          <mxGeometry width="40" height="20" as="geometry">
            <mxRectangle width="40" height="20" as="alternateBounds" />
          </mxGeometry>
        </mxCell>
        <mxCell id="eeZUi_6JxWHf7fmhZz_U-26" value="free" style="shape=partialRectangle;connectable=0;fillColor=none;top=0;left=0;bottom=0;right=0;align=left;spacingLeft=2;overflow=hidden;html=1;whiteSpace=wrap;fontFamily=Source Code Pro;fontSize=6;strokeColor=inherit;spacingRight=2;" parent="eeZUi_6JxWHf7fmhZz_U-24" vertex="1">
          <mxGeometry x="40" width="120" height="20" as="geometry">
            <mxRectangle width="120" height="20" as="alternateBounds" />
          </mxGeometry>
        </mxCell>
        <mxCell id="eeZUi_6JxWHf7fmhZz_U-44" value="" style="endArrow=ERzeroToMany;html=1;rounded=0;endSize=10;startArrow=ERone;startFill=0;endFill=0;startSize=10;jumpSize=5;fontFamily=Source Code Pro;fontSize=50;edgeStyle=orthogonalEdgeStyle;" parent="1" source="eeZUi_6JxWHf7fmhZz_U-1" target="eeZUi_6JxWHf7fmhZz_U-14" edge="1">
          <mxGeometry width="50" height="50" relative="1" as="geometry">
            <mxPoint x="1570" y="450" as="sourcePoint" />
            <mxPoint x="1730" y="570" as="targetPoint" />
            <Array as="points">
              <mxPoint x="1400" y="380" />
            </Array>
          </mxGeometry>
        </mxCell>
        <mxCell id="wR0pdppz9Ygxzf8U3rlt-49" value="medic" style="shape=table;startSize=30;container=1;collapsible=1;childLayout=tableLayout;fixedRows=1;rowLines=0;fontStyle=1;align=center;resizeLast=1;html=1;whiteSpace=wrap;fontFamily=Source Sans Pro;verticalAlign=middle;fillStyle=solid;fillColor=#BEBEBE;swimlaneFillColor=#E6E6E6;" vertex="1" parent="1">
          <mxGeometry x="1600" y="320" width="160" height="120" as="geometry">
            <mxRectangle x="1240" y="320" width="160" height="30" as="alternateBounds" />
          </mxGeometry>
        </mxCell>
        <mxCell id="wR0pdppz9Ygxzf8U3rlt-50" value="" style="shape=tableRow;horizontal=0;startSize=0;swimlaneHead=0;swimlaneBody=0;fillColor=none;collapsible=0;dropTarget=0;points=[[0,0.5],[1,0.5]];portConstraint=eastwest;top=0;left=0;right=0;bottom=1;html=1;fontFamily=Source Sans Pro;fontSize=50;" vertex="1" parent="wR0pdppz9Ygxzf8U3rlt-49">
          <mxGeometry y="30" width="160" height="30" as="geometry" />
        </mxCell>
        <mxCell id="wR0pdppz9Ygxzf8U3rlt-51" value="PK" style="shape=partialRectangle;connectable=0;fillColor=none;top=0;left=0;bottom=0;right=0;fontStyle=1;overflow=hidden;html=1;whiteSpace=wrap;fontFamily=Source Code Pro;fontSize=6;strokeColor=inherit;" vertex="1" parent="wR0pdppz9Ygxzf8U3rlt-50">
          <mxGeometry width="40" height="30" as="geometry">
            <mxRectangle width="40" height="30" as="alternateBounds" />
          </mxGeometry>
        </mxCell>
        <mxCell id="wR0pdppz9Ygxzf8U3rlt-52" value="start" style="shape=partialRectangle;connectable=0;fillColor=none;top=0;left=0;bottom=0;right=0;align=left;spacingLeft=2;fontStyle=5;overflow=hidden;html=1;whiteSpace=wrap;fontFamily=Source Code Pro;fontSize=6;strokeColor=inherit;spacingRight=2;" vertex="1" parent="wR0pdppz9Ygxzf8U3rlt-50">
          <mxGeometry x="40" width="120" height="30" as="geometry">
            <mxRectangle width="120" height="30" as="alternateBounds" />
          </mxGeometry>
        </mxCell>
        <mxCell id="wR0pdppz9Ygxzf8U3rlt-53" value="" style="shape=tableRow;horizontal=0;startSize=0;swimlaneHead=0;swimlaneBody=0;fillColor=none;collapsible=0;dropTarget=0;points=[[0,0.5],[1,0.5]];portConstraint=eastwest;top=0;left=0;right=0;bottom=0;html=1;fontFamily=Source Sans Pro;fontSize=50;" vertex="1" parent="wR0pdppz9Ygxzf8U3rlt-49">
          <mxGeometry y="60" width="160" height="20" as="geometry" />
        </mxCell>
        <mxCell id="wR0pdppz9Ygxzf8U3rlt-54" value="" style="shape=partialRectangle;connectable=0;fillColor=none;top=0;left=0;bottom=0;right=0;editable=1;overflow=hidden;html=1;whiteSpace=wrap;fontFamily=Source Code Pro;fontSize=6;strokeColor=inherit;" vertex="1" parent="wR0pdppz9Ygxzf8U3rlt-53">
          <mxGeometry width="40" height="20" as="geometry">
            <mxRectangle width="40" height="20" as="alternateBounds" />
          </mxGeometry>
        </mxCell>
        <mxCell id="wR0pdppz9Ygxzf8U3rlt-55" value="finish" style="shape=partialRectangle;connectable=0;fillColor=none;top=0;left=0;bottom=0;right=0;align=left;spacingLeft=2;overflow=hidden;html=1;whiteSpace=wrap;fontFamily=Source Code Pro;fontSize=6;strokeColor=inherit;spacingRight=2;" vertex="1" parent="wR0pdppz9Ygxzf8U3rlt-53">
          <mxGeometry x="40" width="120" height="20" as="geometry">
            <mxRectangle width="120" height="20" as="alternateBounds" />
          </mxGeometry>
        </mxCell>
        <mxCell id="wR0pdppz9Ygxzf8U3rlt-56" style="shape=tableRow;horizontal=0;startSize=0;swimlaneHead=0;swimlaneBody=0;fillColor=none;collapsible=0;dropTarget=0;points=[[0,0.5],[1,0.5]];portConstraint=eastwest;top=0;left=0;right=0;bottom=0;html=1;fontFamily=Source Sans Pro;fontSize=50;" vertex="1" parent="wR0pdppz9Ygxzf8U3rlt-49">
          <mxGeometry y="80" width="160" height="20" as="geometry" />
        </mxCell>
        <mxCell id="wR0pdppz9Ygxzf8U3rlt-57" style="shape=partialRectangle;connectable=0;fillColor=none;top=0;left=0;bottom=0;right=0;editable=1;overflow=hidden;html=1;whiteSpace=wrap;fontFamily=Source Code Pro;fontSize=6;strokeColor=inherit;" vertex="1" parent="wR0pdppz9Ygxzf8U3rlt-56">
          <mxGeometry width="40" height="20" as="geometry">
            <mxRectangle width="40" height="20" as="alternateBounds" />
          </mxGeometry>
        </mxCell>
        <mxCell id="wR0pdppz9Ygxzf8U3rlt-58" value="" style="shape=partialRectangle;connectable=0;fillColor=none;top=0;left=0;bottom=0;right=0;align=left;spacingLeft=2;overflow=hidden;html=1;whiteSpace=wrap;fontFamily=Source Code Pro;fontSize=6;strokeColor=inherit;spacingRight=2;" vertex="1" parent="wR0pdppz9Ygxzf8U3rlt-56">
          <mxGeometry x="40" width="120" height="20" as="geometry">
            <mxRectangle width="120" height="20" as="alternateBounds" />
          </mxGeometry>
        </mxCell>
        <mxCell id="wR0pdppz9Ygxzf8U3rlt-59" style="shape=tableRow;horizontal=0;startSize=0;swimlaneHead=0;swimlaneBody=0;fillColor=none;collapsible=0;dropTarget=0;points=[[0,0.5],[1,0.5]];portConstraint=eastwest;top=0;left=0;right=0;bottom=0;html=1;fontFamily=Source Sans Pro;fontSize=50;" vertex="1" parent="wR0pdppz9Ygxzf8U3rlt-49">
          <mxGeometry y="100" width="160" height="20" as="geometry" />
        </mxCell>
        <mxCell id="wR0pdppz9Ygxzf8U3rlt-60" style="shape=partialRectangle;connectable=0;fillColor=none;top=0;left=0;bottom=0;right=0;editable=1;overflow=hidden;html=1;whiteSpace=wrap;fontFamily=Source Code Pro;fontSize=6;strokeColor=inherit;" vertex="1" parent="wR0pdppz9Ygxzf8U3rlt-59">
          <mxGeometry width="40" height="20" as="geometry">
            <mxRectangle width="40" height="20" as="alternateBounds" />
          </mxGeometry>
        </mxCell>
        <mxCell id="wR0pdppz9Ygxzf8U3rlt-61" style="shape=partialRectangle;connectable=0;fillColor=none;top=0;left=0;bottom=0;right=0;align=left;spacingLeft=2;overflow=hidden;html=1;whiteSpace=wrap;fontFamily=Source Code Pro;fontSize=6;strokeColor=inherit;spacingRight=2;" vertex="1" parent="wR0pdppz9Ygxzf8U3rlt-59">
          <mxGeometry x="40" width="120" height="20" as="geometry">
            <mxRectangle width="120" height="20" as="alternateBounds" />
          </mxGeometry>
        </mxCell>
        <mxCell id="wR0pdppz9Ygxzf8U3rlt-64" value="" style="endArrow=ERzeroToMany;html=1;rounded=0;endSize=10;startArrow=ERone;startFill=0;endFill=0;startSize=10;jumpSize=5;fontFamily=Source Code Pro;fontSize=50;edgeStyle=orthogonalEdgeStyle;" edge="1" parent="1" source="wR0pdppz9Ygxzf8U3rlt-49" target="eeZUi_6JxWHf7fmhZz_U-14">
          <mxGeometry width="50" height="50" relative="1" as="geometry">
            <mxPoint x="1210" y="390" as="sourcePoint" />
            <mxPoint x="1650" y="510" as="targetPoint" />
            <Array as="points" />
          </mxGeometry>
        </mxCell>
        <mxCell id="wR0pdppz9Ygxzf8U3rlt-65" value="appointment" style="shape=table;startSize=30;container=1;collapsible=1;childLayout=tableLayout;fixedRows=1;rowLines=0;fontStyle=1;align=center;resizeLast=1;html=1;whiteSpace=wrap;fontFamily=Source Sans Pro;verticalAlign=middle;fillStyle=solid;fillColor=#BEBEBE;swimlaneFillColor=#E6E6E6;" vertex="1" parent="1">
          <mxGeometry x="1320" y="520" width="160" height="120" as="geometry">
            <mxRectangle x="1240" y="480" width="160" height="30" as="alternateBounds" />
          </mxGeometry>
        </mxCell>
        <mxCell id="wR0pdppz9Ygxzf8U3rlt-66" value="" style="shape=tableRow;horizontal=0;startSize=0;swimlaneHead=0;swimlaneBody=0;fillColor=none;collapsible=0;dropTarget=0;points=[[0,0.5],[1,0.5]];portConstraint=eastwest;top=0;left=0;right=0;bottom=1;html=1;fontFamily=Source Sans Pro;fontSize=50;" vertex="1" parent="wR0pdppz9Ygxzf8U3rlt-65">
          <mxGeometry y="30" width="160" height="30" as="geometry" />
        </mxCell>
        <mxCell id="wR0pdppz9Ygxzf8U3rlt-67" value="PK, FK" style="shape=partialRectangle;connectable=0;fillColor=none;top=0;left=0;bottom=0;right=0;fontStyle=1;overflow=hidden;html=1;whiteSpace=wrap;fontFamily=Source Code Pro;fontSize=6;strokeColor=inherit;" vertex="1" parent="wR0pdppz9Ygxzf8U3rlt-66">
          <mxGeometry width="40" height="30" as="geometry">
            <mxRectangle width="40" height="30" as="alternateBounds" />
          </mxGeometry>
        </mxCell>
        <mxCell id="wR0pdppz9Ygxzf8U3rlt-68" value="agendaID" style="shape=partialRectangle;connectable=0;fillColor=none;top=0;left=0;bottom=0;right=0;align=left;spacingLeft=2;fontStyle=5;overflow=hidden;html=1;whiteSpace=wrap;fontFamily=Source Code Pro;fontSize=6;strokeColor=inherit;spacingRight=2;" vertex="1" parent="wR0pdppz9Ygxzf8U3rlt-66">
          <mxGeometry x="40" width="120" height="30" as="geometry">
            <mxRectangle width="120" height="30" as="alternateBounds" />
          </mxGeometry>
        </mxCell>
        <mxCell id="wR0pdppz9Ygxzf8U3rlt-69" value="" style="shape=tableRow;horizontal=0;startSize=0;swimlaneHead=0;swimlaneBody=0;fillColor=none;collapsible=0;dropTarget=0;points=[[0,0.5],[1,0.5]];portConstraint=eastwest;top=0;left=0;right=0;bottom=0;html=1;fontFamily=Source Sans Pro;fontSize=50;" vertex="1" parent="wR0pdppz9Ygxzf8U3rlt-65">
          <mxGeometry y="60" width="160" height="20" as="geometry" />
        </mxCell>
        <mxCell id="wR0pdppz9Ygxzf8U3rlt-70" value="&lt;b&gt;FK&lt;/b&gt;" style="shape=partialRectangle;connectable=0;fillColor=none;top=0;left=0;bottom=0;right=0;editable=1;overflow=hidden;html=1;whiteSpace=wrap;fontFamily=Source Code Pro;fontSize=6;strokeColor=inherit;" vertex="1" parent="wR0pdppz9Ygxzf8U3rlt-69">
          <mxGeometry width="40" height="20" as="geometry">
            <mxRectangle width="40" height="20" as="alternateBounds" />
          </mxGeometry>
        </mxCell>
        <mxCell id="wR0pdppz9Ygxzf8U3rlt-71" value="rutM" style="shape=partialRectangle;connectable=0;fillColor=none;top=0;left=0;bottom=0;right=0;align=left;spacingLeft=2;overflow=hidden;html=1;whiteSpace=wrap;fontFamily=Source Code Pro;fontSize=6;strokeColor=inherit;spacingRight=2;" vertex="1" parent="wR0pdppz9Ygxzf8U3rlt-69">
          <mxGeometry x="40" width="120" height="20" as="geometry">
            <mxRectangle width="120" height="20" as="alternateBounds" />
          </mxGeometry>
        </mxCell>
        <mxCell id="wR0pdppz9Ygxzf8U3rlt-72" style="shape=tableRow;horizontal=0;startSize=0;swimlaneHead=0;swimlaneBody=0;fillColor=none;collapsible=0;dropTarget=0;points=[[0,0.5],[1,0.5]];portConstraint=eastwest;top=0;left=0;right=0;bottom=0;html=1;fontFamily=Source Sans Pro;fontSize=50;" vertex="1" parent="wR0pdppz9Ygxzf8U3rlt-65">
          <mxGeometry y="80" width="160" height="20" as="geometry" />
        </mxCell>
        <mxCell id="wR0pdppz9Ygxzf8U3rlt-73" value="&lt;b&gt;FK&lt;/b&gt;" style="shape=partialRectangle;connectable=0;fillColor=none;top=0;left=0;bottom=0;right=0;editable=1;overflow=hidden;html=1;whiteSpace=wrap;fontFamily=Source Code Pro;fontSize=6;strokeColor=inherit;" vertex="1" parent="wR0pdppz9Ygxzf8U3rlt-72">
          <mxGeometry width="40" height="20" as="geometry">
            <mxRectangle width="40" height="20" as="alternateBounds" />
          </mxGeometry>
        </mxCell>
        <mxCell id="wR0pdppz9Ygxzf8U3rlt-74" value="rutP" style="shape=partialRectangle;connectable=0;fillColor=none;top=0;left=0;bottom=0;right=0;align=left;spacingLeft=2;overflow=hidden;html=1;whiteSpace=wrap;fontFamily=Source Code Pro;fontSize=6;strokeColor=inherit;spacingRight=2;" vertex="1" parent="wR0pdppz9Ygxzf8U3rlt-72">
          <mxGeometry x="40" width="120" height="20" as="geometry">
            <mxRectangle width="120" height="20" as="alternateBounds" />
          </mxGeometry>
        </mxCell>
        <mxCell id="wR0pdppz9Ygxzf8U3rlt-78" style="shape=tableRow;horizontal=0;startSize=0;swimlaneHead=0;swimlaneBody=0;fillColor=none;collapsible=0;dropTarget=0;points=[[0,0.5],[1,0.5]];portConstraint=eastwest;top=0;left=0;right=0;bottom=0;html=1;fontFamily=Source Sans Pro;fontSize=50;" vertex="1" parent="wR0pdppz9Ygxzf8U3rlt-65">
          <mxGeometry y="100" width="160" height="20" as="geometry" />
        </mxCell>
        <mxCell id="wR0pdppz9Ygxzf8U3rlt-79" style="shape=partialRectangle;connectable=0;fillColor=none;top=0;left=0;bottom=0;right=0;editable=1;overflow=hidden;html=1;whiteSpace=wrap;fontFamily=Source Code Pro;fontSize=6;strokeColor=inherit;" vertex="1" parent="wR0pdppz9Ygxzf8U3rlt-78">
          <mxGeometry width="40" height="20" as="geometry">
            <mxRectangle width="40" height="20" as="alternateBounds" />
          </mxGeometry>
        </mxCell>
        <mxCell id="wR0pdppz9Ygxzf8U3rlt-80" value="" style="shape=partialRectangle;connectable=0;fillColor=none;top=0;left=0;bottom=0;right=0;align=left;spacingLeft=2;overflow=hidden;html=1;whiteSpace=wrap;fontFamily=Source Code Pro;fontSize=6;strokeColor=inherit;spacingRight=2;" vertex="1" parent="wR0pdppz9Ygxzf8U3rlt-78">
          <mxGeometry x="40" width="120" height="20" as="geometry">
            <mxRectangle width="120" height="20" as="alternateBounds" />
          </mxGeometry>
        </mxCell>
        <mxCell id="wR0pdppz9Ygxzf8U3rlt-81" value="" style="endArrow=ERzeroToOne;html=1;rounded=0;endSize=10;startArrow=ERone;startFill=0;endFill=0;startSize=10;jumpSize=5;fontFamily=Source Code Pro;fontSize=50;edgeStyle=orthogonalEdgeStyle;" edge="1" parent="1" source="eeZUi_6JxWHf7fmhZz_U-14" target="wR0pdppz9Ygxzf8U3rlt-65">
          <mxGeometry width="50" height="50" relative="1" as="geometry">
            <mxPoint x="1410" y="810" as="sourcePoint" />
            <mxPoint x="1410" y="670" as="targetPoint" />
            <Array as="points" />
          </mxGeometry>
        </mxCell>
      </root>
    </mxGraphModel>
  </diagram>
</mxfile>
